<svg width="308" height="308" viewBox="0 0 308 308" fill="none" xmlns="http://www.w3.org/2000/svg">
<circle cx="154" cy="154" r="154" fill="url(#paint0_linear)"/>
<path d="M124.469 163.099C124.469 168.334 123.664 173.367 122.053 178.199C120.442 183.031 118.077 187.309 114.956 191.034C111.936 194.658 108.211 197.577 103.782 199.792C99.3527 202.007 94.3193 203.114 88.682 203.114C83.6487 203.114 78.867 202.107 74.337 200.094C69.9077 197.98 66.485 195.01 64.069 191.185H63.767V201H40.966V86.844H65.73V133.805H66.032C68.146 131.288 71.1157 128.973 74.941 126.859C78.7663 124.745 83.4473 123.688 88.984 123.688C94.42 123.688 99.3023 124.745 103.631 126.859C108.06 128.973 111.785 131.842 114.805 135.466C117.926 139.09 120.291 143.318 121.902 148.15C123.613 152.881 124.469 157.864 124.469 163.099ZM100.611 163.099C100.611 160.683 100.208 158.317 99.403 156.002C98.6983 153.687 97.591 151.673 96.081 149.962C94.571 148.15 92.7087 146.69 90.494 145.583C88.2793 144.476 85.7123 143.922 82.793 143.922C79.9743 143.922 77.4577 144.476 75.243 145.583C73.0283 146.69 71.1157 148.15 69.505 149.962C67.995 151.774 66.787 153.838 65.881 156.153C65.0757 158.468 64.673 160.834 64.673 163.25C64.673 165.666 65.0757 168.032 65.881 170.347C66.787 172.662 67.995 174.726 69.505 176.538C71.1157 178.35 73.0283 179.81 75.243 180.917C77.4577 182.024 79.9743 182.578 82.793 182.578C85.7123 182.578 88.2793 182.024 90.494 180.917C92.7087 179.81 94.571 178.35 96.081 176.538C97.591 174.726 98.6983 172.662 99.403 170.347C100.208 167.931 100.611 165.515 100.611 163.099ZM167.078 144.375V173.065C167.078 176.588 167.732 179.256 169.041 181.068C170.45 182.779 172.917 183.635 176.44 183.635C177.648 183.635 178.906 183.534 180.215 183.333C181.624 183.132 182.782 182.83 183.688 182.427L183.99 200.547C182.279 201.151 180.114 201.654 177.497 202.057C174.88 202.56 172.262 202.812 169.645 202.812C164.612 202.812 160.384 202.208 156.961 201C153.538 199.691 150.77 197.879 148.656 195.564C146.643 193.148 145.183 190.329 144.277 187.108C143.371 183.786 142.918 180.112 142.918 176.085V144.375H130.838V125.802H142.767V106.021H167.078V125.802H184.745V144.375H167.078ZM280.037 163.099C280.037 168.334 279.231 173.367 277.621 178.199C276.01 183.031 273.644 187.309 270.524 191.034C267.504 194.658 263.779 197.577 259.35 199.792C254.92 202.007 249.887 203.114 244.25 203.114C239.619 203.114 235.24 202.208 231.113 200.396C226.985 198.483 223.764 195.916 221.449 192.695H221.147V237.24H196.383V125.802H219.939V135.013H220.392C222.707 131.993 225.878 129.376 229.905 127.161C234.032 124.846 238.864 123.688 244.401 123.688C249.837 123.688 254.769 124.745 259.199 126.859C263.628 128.973 267.353 131.842 270.373 135.466C273.493 139.09 275.859 143.318 277.47 148.15C279.181 152.881 280.037 157.864 280.037 163.099ZM256.028 163.099C256.028 160.683 255.625 158.317 254.82 156.002C254.115 153.687 253.008 151.673 251.498 149.962C250.088 148.15 248.276 146.69 246.062 145.583C243.847 144.476 241.28 143.922 238.361 143.922C235.542 143.922 233.025 144.476 230.811 145.583C228.596 146.69 226.683 148.15 225.073 149.962C223.563 151.774 222.355 153.838 221.449 156.153C220.643 158.468 220.241 160.834 220.241 163.25C220.241 165.666 220.643 168.032 221.449 170.347C222.355 172.662 223.563 174.726 225.073 176.538C226.683 178.35 228.596 179.81 230.811 180.917C233.025 182.024 235.542 182.578 238.361 182.578C241.28 182.578 243.847 182.024 246.062 180.917C248.276 179.81 250.088 178.35 251.498 176.538C253.008 174.726 254.115 172.662 254.82 170.347C255.625 167.931 256.028 165.515 256.028 163.099Z" fill="white"/>
<defs>
<linearGradient id="paint0_linear" x1="154" y1="0" x2="154" y2="308" gradientUnits="userSpaceOnUse">
<stop stop-color="#00B2FF"/>
<stop offset="1" stop-color="#5200FF"/>
</linearGradient>
</defs>
</svg>
